<svg xmlns="http://www.w3.org/2000/svg" width="1135.8333740234375" height="650"><rect width="1135.8333740234375" height="650" fill="transparent"></rect><g transform="translate(10,40)"><g transform="translate(487.91668701171875,285)"><g transform="rotate(-90)" opacity="1"><line x1="85.5" x2="285" stroke="#dddddd" stroke-width="1"></line></g><g transform="rotate(-70.27469316189362)" opacity="1"><line x1="85.5" x2="285" stroke="#dddddd" stroke-width="1"></line></g><g transform="rotate(-50.54938632378726)" opacity="1"><line x1="85.5" x2="285" stroke="#dddddd" stroke-width="1"></line></g><g transform="rotate(-30.824079485680883)" opacity="1"><line x1="85.5" x2="285" stroke="#dddddd" stroke-width="1"></line></g><g transform="rotate(-11.09877264757452)" opacity="1"><line x1="85.5" x2="285" stroke="#dddddd" stroke-width="1"></line></g><g transform="rotate(8.626534190531856)" opacity="1"><line x1="85.5" x2="285" stroke="#dddddd" stroke-width="1"></line></g><g transform="rotate(28.351841028638233)" opacity="1"><line x1="85.5" x2="285" stroke="#dddddd" stroke-width="1"></line></g><g transform="rotate(48.07714786674458)" opacity="1"><line x1="85.5" x2="285" stroke="#dddddd" stroke-width="1"></line></g><g transform="rotate(67.80245470485096)" opacity="1"><line x1="85.5" x2="285" stroke="#dddddd" stroke-width="1"></line></g><g transform="rotate(87.52776154295731)" opacity="1"><line x1="85.5" x2="285" stroke="#dddddd" stroke-width="1"></line></g><g transform="rotate(107.25306838106371)" opacity="1"><line x1="85.5" x2="285" stroke="#dddddd" stroke-width="1"></line></g><g transform="rotate(126.97837521917009)" opacity="1"><line x1="85.5" x2="285" stroke="#dddddd" stroke-width="1"></line></g><g transform="rotate(146.70368205727647)" opacity="1"><line x1="85.5" x2="285" stroke="#dddddd" stroke-width="1"></line></g><g transform="rotate(166.42898889538282)" opacity="1"><line x1="85.5" x2="285" stroke="#dddddd" stroke-width="1"></line></g><path d="M -126.5735294117647 1.55007867650901e-14 A 126.5735294117647 126.5735294117647 0 1 0 7.75039338254505e-15 -126.5735294117647" stroke="#dddddd" stroke-width="1" stroke-opacity="1" fill="none"></path><path d="M -185.24999999999997 2.2686581954204715e-14 A 185.24999999999997 185.24999999999997 0 1 0 1.1343290977102357e-14 -185.24999999999997" stroke="#dddddd" stroke-width="1" stroke-opacity="1" fill="none"></path><path d="M -243.92647058823528 2.987237714331933e-14 A 243.92647058823528 243.92647058823528 0 1 0 1.4936188571659666e-14 -243.92647058823528" stroke="#dddddd" stroke-width="1" stroke-opacity="1" fill="none"></path></g><g transform="translate(487.91668701171875, 285)"><g transform="rotate(-90)"><g opacity="1" transform="translate(126.5735294117647, 0) rotate(90)"><line x2="-5" style="stroke: rgb(119, 119, 119); stroke-width: 1px;"></line><text dx="-10" text-anchor="end" dominant-baseline="central" style="font-family: sans-serif; font-size: 13px; fill: rgb(33, 41, 50);">Breton</text></g><g opacity="1" transform="translate(185.24999999999997, 0) rotate(90)"><line x2="-5" style="stroke: rgb(119, 119, 119); stroke-width: 1px;"></line><text dx="-10" text-anchor="end" dominant-baseline="central" style="font-family: sans-serif; font-size: 13px; fill: rgb(33, 41, 50);">French</text></g><g opacity="1" transform="translate(243.92647058823528, 0) rotate(90)"><line x2="-5" style="stroke: rgb(119, 119, 119); stroke-width: 1px;"></line><text dx="-10" text-anchor="end" dominant-baseline="central" style="font-family: sans-serif; font-size: 13px; fill: rgb(33, 41, 50);">English</text></g></g></g><g transform="translate(487.91668701171875, 285)"><path d="M -285 3.490243377569957e-14 A 285 285 0 1 0 1.7451216887849784e-14 -285" stroke="transparent" stroke-width="1" fill="none"></path><g opacity="1"><line x1="1.7451216887849784e-14" y1="-285" x2="1.7757378587636622e-14" y2="-290" style="stroke: rgb(119, 119, 119); stroke-width: 1px;"></line><text dx="1.8492166667125033e-14" dy="-302" dominant-baseline="central" style="font-family: sans-serif; font-size: 13px; fill: rgb(33, 41, 50);" text-anchor="middle">0</text></g><g opacity="1"><line x1="96.19065251004575" y1="-268.2766452184976" x2="97.87820781723954" y2="-272.9832530293484" style="stroke: rgb(119, 119, 119); stroke-width: 1px;"></line><text dx="101.92834055450463" dy="-284.27911177539045" dominant-baseline="central" style="font-family: sans-serif; font-size: 13px; fill: rgb(33, 41, 50);" text-anchor="middle">500</text></g><g opacity="1"><line x1="181.09267057384793" y1="-220.06918154169566" x2="184.26973496988035" y2="-223.93004437576047" style="stroke: rgb(119, 119, 119); stroke-width: 1px;"></line><text dx="191.89468952035816" dy="-233.1961151775161" dominant-baseline="central" style="font-family: sans-serif; font-size: 13px; fill: rgb(33, 41, 50);" text-anchor="middle">1000</text></g><g opacity="1"><line x1="244.7422186142382" y1="-146.03508629018043" x2="249.0359417478213" y2="-148.5971053479029" style="stroke: rgb(119, 119, 119); stroke-width: 1px;"></line><text dx="259.3408772684208" dy="-154.7459510864368" dominant-baseline="central" style="font-family: sans-serif; font-size: 13px; fill: rgb(33, 41, 50);" text-anchor="middle">1500</text></g><g opacity="1"><line x1="279.6695845360465" y1="-54.86276957495997" x2="284.57606847527535" y2="-55.82527430434523" style="stroke: rgb(119, 119, 119); stroke-width: 1px;"></line><text dx="296.3516299294247" dy="-58.13528565486986" dominant-baseline="central" style="font-family: sans-serif; font-size: 13px; fill: rgb(33, 41, 50);" text-anchor="middle">2000</text></g><g opacity="1"><line x1="281.77580179966753" y1="42.748070367614034" x2="286.71923691895995" y2="43.49803651441428" style="stroke: rgb(119, 119, 119); stroke-width: 1px;"></line><text dx="298.5834812052617" dy="45.297955266734874" dominant-baseline="central" style="font-family: sans-serif; font-size: 13px; fill: rgb(33, 41, 50);" text-anchor="middle">2500</text></g><g opacity="1"><line x1="250.8136913275823" y1="135.3421303313653" x2="255.2139315263118" y2="137.71655367051207" style="stroke: rgb(119, 119, 119); stroke-width: 1px;"></line><text dx="265.7745080032626" dy="143.4151696844643" dominant-baseline="central" style="font-family: sans-serif; font-size: 13px; fill: rgb(33, 41, 50);" text-anchor="middle">3000</text></g><g opacity="1"><line x1="190.41686966862423" y1="212.05286073430412" x2="193.75751650491588" y2="215.77308636122171" style="stroke: rgb(119, 119, 119); stroke-width: 1px;"></line><text dx="201.77506891201585" dy="224.701627865824" dominant-baseline="central" style="font-family: sans-serif; font-size: 13px; fill: rgb(33, 41, 50);" text-anchor="middle">3500</text></g><g opacity="1"><line x1="107.67331911246252" y1="263.8777299267708" x2="109.56232471092677" y2="268.5071637851352" style="stroke: rgb(119, 119, 119); stroke-width: 1px;"></line><text dx="114.09593814724099" dy="279.6178050452098" dominant-baseline="central" style="font-family: sans-serif; font-size: 13px; fill: rgb(33, 41, 50);" text-anchor="middle">4000</text></g><g opacity="1"><line x1="12.293564233356165" y1="284.7347331788666" x2="12.509240798853641" y2="289.73007937498704" style="stroke: rgb(119, 119, 119); stroke-width: 1px;"></line><text dx="13.026864556047585" dy="301.71891024567617" dominant-baseline="central" style="font-family: sans-serif; font-size: 13px; fill: rgb(33, 41, 50);" text-anchor="middle">4500</text></g><g opacity="1"><line x1="-84.52892493489865" y1="272.1761577533019" x2="-86.01188853024775" y2="276.9511780647633" style="stroke: rgb(119, 119, 119); stroke-width: 1px;"></line><text dx="-89.57100115908558" dy="288.41122681227074" dominant-baseline="central" style="font-family: sans-serif; font-size: 13px; fill: rgb(33, 41, 50);" text-anchor="middle">5000</text></g><g opacity="1"><line x1="-171.43136356992306" y1="227.67583882475728" x2="-174.43893135185152" y2="231.6701517865951" style="stroke: rgb(119, 119, 119); stroke-width: 1px;"></line><text dx="-181.65709402847986" dy="241.25650289500595" dominant-baseline="central" style="font-family: sans-serif; font-size: 13px; fill: rgb(33, 41, 50);" text-anchor="middle">5500</text></g><g opacity="1"><line x1="-238.21515298630501" y1="156.4561947885455" x2="-242.39436619659108" y2="159.20104031115156" style="stroke: rgb(119, 119, 119); stroke-width: 1px;"></line><text dx="-252.4244779012776" dy="165.7886695654061" dominant-baseline="central" style="font-family: sans-serif; font-size: 13px; fill: rgb(33, 41, 50);" text-anchor="middle">6000</text></g><g opacity="1"><line x1="-277.0427563134249" y1="66.87534055435003" x2="-281.90315554699373" y2="68.04859214302283" style="stroke: rgb(119, 119, 119); stroke-width: 1px;"></line><text dx="-293.568113707559" dy="70.86439595583757" dominant-baseline="central" style="font-family: sans-serif; font-size: 13px; fill: rgb(33, 41, 50);" text-anchor="middle">6500</text></g></g><g transform="translate(487.91668701171875,285)"><path d="M8.881784197001252e-15,-142.1624028670286A2,2,0,0,1,2.0281340504758054,-144.16220497603933A144.1764705882353,144.1764705882353,0,1,1,-144.16220497603933,2.028134050475825A2,2,0,0,1,-142.1624028670286,1.7763568394002505e-14L-110.95256397797753,1.3766765505351941e-14A2,2,0,0,1,-108.95288882544574,1.9639544129340183A108.97058823529412,108.97058823529412,0,1,0,1.9639544129340178,-108.95288882544573A2,2,0,0,1,7.105427357601002e-15,-110.95256397797753Z" opacity="1" fill="rgba(0, 0, 0, .15)" stroke="none" stroke-width="0"></path><path d="M1.1102230246251565e-14,-200.84298339558376A2,2,0,0,1,2.019915068091972,-202.84288424064155A202.85294117647055,202.85294117647055,0,1,1,-202.84288424064158,2.019915068091996A2,2,0,0,1,-200.84298339558376,2.531308496145357e-14L-169.63526923217955,2.1316282072803006e-14A2,2,0,0,1,-167.63540822181406,1.9764216366158325A167.6470588235294,167.6470588235294,0,1,0,1.976421636615837,-167.63540822181406A2,2,0,0,1,8.881784197001252e-15,-169.63526923217955Z" opacity="1" fill="rgba(0, 0, 0, .15)" stroke="none" stroke-width="0"></path><path d="M1.6431300764452317e-14,-259.52170539462446A2,2,0,0,1,2.0154125113327455,-261.52164600736637A261.52941176470586,261.52941176470586,0,1,1,-261.5216460073663,2.0154125113327477A2,2,0,0,1,-259.52170539462446,3.064215547965432e-14L-228.31476974353845,2.6645352591003757e-14A2,2,0,0,1,-226.31484647385398,1.982480999613578A226.3235294117647,226.3235294117647,0,1,0,1.9824809996135795,-226.31484647385395A2,2,0,0,1,1.4210854715202004e-14,-228.31476974353845Z" opacity="1" fill="rgba(0, 0, 0, .15)" stroke="none" stroke-width="0"></path></g><g transform="translate(487.91668701171875,285)"><path d="M8.828262660912244e-15,-144.1764705882353L6.6725241041778585e-15,-108.97058823529412Z" opacity="1" fill="#a6cee3" stroke="rgb(116, 144, 159)" stroke-width="0"></path><path d="M8.81239525796218e-15,-144.126843273335A0.049618773734128034,0.049618773734128034,0,1,1,0.09923753570634339,-144.12680910867337L0.07505677623298534,-109.00808432796698A0.03752839256561771,0.03752839256561771,0,0,1,-2.3025609197091512e-12,-109.00811016788072Z" opacity="1" fill="#1f78b4" stroke="rgb(22, 84, 126)" stroke-width="0"></path><path d="M0.09927170624586523,-144.17643641180973L0.07503094076722372,-108.9705624042748Z" opacity="1" fill="#b2df8a" stroke="rgb(125, 156, 97)" stroke-width="0"></path><path d="M0.09927170624586523,-144.17643641180973L0.07503094076722372,-108.9705624042748Z" opacity="1" fill="#33a02c" stroke="rgb(36, 112, 31)" stroke-width="0"></path><path d="M0.09920337691859547,-144.07719888199657A0.09920340042717592,0.09920340042717592,0,1,1,0.29760994261552864,-144.07692565888001L0.2252477194090834,-109.04541238563975A0.0750826383903508,0.0750826383903508,0,0,1,0.07508262060856549,-109.04561917605592Z" opacity="1" fill="#fb9a99" stroke="rgb(176, 108, 107)" stroke-width="0"></path><path d="M0.2969958242815845,-143.7796228106555A0.3959957152522294,0.3959957152522294,0,1,1,1.08897505185486,-143.77580559826623L0.8276087668027614,-109.26799191990253A0.3009522807710729,0.3009522807710729,0,0,1,0.22571347935078945,-109.27089295829887Z" opacity="1" fill="#e31a1c" stroke="rgb(159, 18, 20)" stroke-width="0"></path><path d="M1.0889750518567125,-143.77580559826626A0.3959957152522292,0.3959957152522292,0,1,1,1.8809212379822575,-143.7676259711849L1.4294789431282147,-109.26177549550404A0.3009522807710727,0.3009522807710727,0,0,1,0.8276087668041452,-109.26799191990251Z" opacity="1" fill="#fdbf6f" stroke="rgb(177, 134, 78)" stroke-width="0"></path><path d="M1.8861087663014917,-144.16413307408317L1.4255473233674065,-108.96126336994656Z" opacity="1" fill="#ff7f00" stroke="rgb(179, 89, 0)" stroke-width="0"></path><path d="M1.884810546012395,-144.06490401271577A0.0992034004445871,0.0992034004445871,0,1,1,2.0831984875722354,-144.0621718670406L1.5766802152213402,-109.03424589729198A0.07508263840354665,0.07508263840354665,0,0,1,1.4265292122012196,-109.03631373674983Z" opacity="1" fill="#cab2d6" stroke="rgb(141, 125, 150)" stroke-width="0"></path><path d="M2.055512147207968,-142.14754186668168A2,2,0,0,1,4.112349127178229,-144.1178103356295A144.1764705882353,144.1764705882353,0,0,1,4.225311974916457,-144.1145426735099A2,2,0,0,1,6.164817541577293,-142.02867250526003L4.79429359431148,-110.45374014853863A1.598710574870872,1.598710574870872,0,0,1,1.598543453058321,-110.54618321180536Z" opacity="1" fill="#6a3d9a" stroke="rgb(74, 43, 108)" stroke-width="0"></path><path d="M6.250004738978822,-143.99126498748413A0.04961877374574232,0.04961877374574232,0,1,1,6.349147441685113,-143.98692745765803L4.802079529904067,-108.90228700336469A0.03752839257440771,0.03752839257440771,0,0,1,4.727094479142535,-108.90556762700427Z" opacity="1" fill="#ffff99" stroke="rgb(179, 179, 107)" stroke-width="0"></path><path d="M6.351333648838224,-144.03650659524277L4.800426595052146,-108.86480149640441Z" opacity="1" fill="#b15928" stroke="rgb(124, 62, 28)" stroke-width="0"></path><path d="M6.344777283565427,-143.88782035042095A0.14875390947013745,0.14875390947013745,0,1,1,6.641982434058993,-143.87440742994812L5.030483393522669,-108.96713812696208A0.11266275976184509,0.11266275976184509,0,0,1,4.805387108058242,-108.9772967617322Z" opacity="1" fill="#f92a82" stroke="rgb(174, 29, 91)" stroke-width="0"></path><path d="M6.648845915792834,-144.0230798145503L5.025290517750397,-108.85465334820661Z" opacity="1" fill="#495867" stroke="rgb(51, 62, 72)" stroke-width="0"></path><path d="M1.2545520178264269e-14,-202.01662953835373A0.8345876868839807,0.8345876868839807,0,1,1,1.6691468856171139,-202.00973382169155L1.3909052999508034,-168.33534054702386A0.6954645196056493,0.6954645196056493,0,0,1,4.370281914134466e-12,-168.34108676920178Z" opacity="1" fill="#a6cee3" stroke="rgb(116, 144, 159)" stroke-width="0"></path><path d="M1.6594497245098947,-200.8361277406298A2,2,0,0,1,3.695819871140127,-202.81927092715995A202.85294117647055,202.85294117647055,0,0,1,17.3732882671886,-202.10760648409496A2,2,0,0,1,19.192845844743537,-199.92383211517992L16.21059156342117,-168.85893902496832A2,2,0,0,1,14.05210534587388,-167.05710002130525A167.6470588235294,167.6470588235294,0,0,0,3.3614288577997655,-167.61335605557773A2,2,0,0,1,1.4015983831511427,-169.62947883385831Z" opacity="1" fill="#1f78b4" stroke="rgb(22, 84, 126)" stroke-width="0"></path><path d="M19.192845844743534,-199.92383211517995A2,2,0,0,1,21.394630254175034,-201.72155447604445A202.85294117647055,202.85294117647055,0,0,1,24.31960913534075,-201.3898516694644A2,2,0,0,1,26.06292223470371,-199.14474149177659L22.013170465374287,-168.20090633981854A2,2,0,0,1,19.79394333400823,-166.47443088795947A167.6470588235294,167.6470588235294,0,0,0,17.986858562413467,-166.6793606036322A2,2,0,0,1,16.21059156342117,-168.85893902496838Z" opacity="1" fill="#b2df8a" stroke="rgb(125, 156, 97)" stroke-width="0"></path><path d="M26.062922234703738,-199.1447414917766A2,2,0,0,1,28.3252802050463,-200.86561240105345A202.85294117647055,202.85294117647055,0,0,1,37.156854734117644,-199.4208712502588A2,2,0,0,1,38.7529286007201,-197.06880652225564L32.73135742945319,-166.44753770572703A2,2,0,0,1,30.40620015403618,-164.86661070202365A167.6470588235294,167.6470588235294,0,0,0,23.713363064269682,-165.9614797004475A2,2,0,0,1,22.013170465374312,-168.20090633981857Z" opacity="1" fill="#33a02c" stroke="rgb(36, 112, 31)" stroke-width="0"></path><path d="M38.7529286007201,-197.06880652225567A2,2,0,0,1,41.120769679168774,-198.64138049494466A202.85294117647055,202.85294117647055,0,0,1,51.19451458536172,-196.28662058406786A2,2,0,0,1,52.61990780513984,-193.82736979543762L44.443634906160405,-163.7097672217573A2,2,0,0,1,42.0122972454428,-162.29757611357135A167.6470588235294,167.6470588235294,0,0,0,34.2847628653408,-164.10390418100135A2,2,0,0,1,32.73135742945319,-166.44753770572706Z" opacity="1" fill="#fb9a99" stroke="rgb(176, 108, 107)" stroke-width="0"></path><path d="M52.61990780513988,-193.82736979543765A2,2,0,0,1,55.09323007185006,-195.2282042743692A202.85294117647055,202.85294117647055,0,0,1,78.55720053601382,-187.02428181359A2,2,0,0,1,79.61881268186958,-184.38749590568258L67.24735162210501,-155.73669531387588A2,2,0,0,1,64.64007111496343,-154.68418645237267A167.6470588235294,167.6470588235294,0,0,0,45.82706439294641,-161.26194994884773A2,2,0,0,1,44.44363490616045,-163.70976722175732Z" opacity="1" fill="#e31a1c" stroke="rgb(159, 18, 20)" stroke-width="0"></path><path d="M79.61881268186961,-184.38749590568258A2,2,0,0,1,82.2660389036859,-185.42279953404295A202.85294117647055,202.85294117647055,0,0,1,99.98287262032085,-176.50139072124423A2,2,0,0,1,100.72739408806237,-173.75815393663376L85.07600477896517,-146.75897920850883A2,2,0,0,1,82.36313846977451,-146.02003202844693A167.6470588235294,167.6470588235294,0,0,0,68.26904963607628,-153.11718778101587A2,2,0,0,1,67.24735162210503,-155.7366953138759Z" opacity="1" fill="#fdbf6f" stroke="rgb(177, 134, 78)" stroke-width="0"></path><path d="M101.10693660080035,-174.41287757910348A1.249307125604084,1.249307125604084,0,1,1,103.26075016410354,-173.14641772144228L86.4037294456894,-144.8807626084256A1.0453613275491171,1.0453613275491171,0,0,1,84.60151975706759,-145.94047653381622Z" opacity="1" fill="#ff7f00" stroke="rgb(179, 89, 0)" stroke-width="0"></path><path d="M102.8731225106317,-172.49644820735094A2,2,0,0,1,105.63231384607222,-173.17947342416053A202.85294117647055,202.85294117647055,0,0,1,109.07798483101567,-171.0301405283564A2,2,0,0,1,109.67800106302016,-168.25171637180668L92.63583384701805,-142.10815196512024A2,2,0,0,1,89.88803015815948,-141.51211385060196A167.6470588235294,167.6470588235294,0,0,0,87.56145374001409,-142.96338045497978A2,2,0,0,1,86.8883221052059,-145.69332191015496Z" opacity="1" fill="#cab2d6" stroke="rgb(141, 125, 150)" stroke-width="0"></path><path d="M109.67800106302019,-168.25171637180668A2,2,0,0,1,112.46226215438489,-168.82403660339077A202.85294117647055,202.85294117647055,0,0,1,194.3979120901263,-57.95487485056062A2,2,0,0,1,193.03355785871864,-55.46124340152731L163.039300674565,-46.84347343038124A2,2,0,0,1,160.57142711918203,-48.190799174626015A167.6470588235294,167.6470588235294,0,0,0,93.19943618303431,-139.35351243274937A2,2,0,0,1,92.63583384701808,-142.10815196512024Z" opacity="1" fill="#6a3d9a" stroke="rgb(74, 43, 108)" stroke-width="0"></path><path d="M193.36107590829974,-55.55534392201557A1.6623220381340724,1.6623220381340724,0,1,1,194.2526874883616,-52.35260564917104L163.21440216389738,-43.98754706167787A1.3967111660896814,1.3967111660896814,0,0,1,162.46525499438437,-46.67854207054266Z" opacity="1" fill="#ffff99" stroke="rgb(179, 179, 107)" stroke-width="0"></path><path d="M195.39292523802834,-52.65990856490627A0.4876797439049145,0.4876797439049145,0,1,1,195.64446504022257,-51.717545400600294L162.47083437763655,-42.94827738403491A0.4049883797377734,0.4049883797377734,0,0,1,162.2619458638047,-43.730852702790095Z" opacity="1" fill="#b15928" stroke="rgb(124, 62, 28)" stroke-width="0"></path><path d="M194.17330755014385,-51.328652955985504A2,2,0,0,1,196.6230166366634,-49.88692286203888A202.85294117647055,202.85294117647055,0,0,1,201.7690307784874,20.94215754535386A2,2,0,0,1,199.55344276921582,22.722840011584093L168.54610212441509,19.192082381552428A2,2,0,0,1,166.7826885809281,17.002091691821093A167.6470588235294,167.6470588235294,0,0,0,162.5736094196394,-40.931135489385746A2,2,0,0,1,164.0019519083469,-43.35301993778871Z" opacity="1" fill="#f92a82" stroke="rgb(174, 29, 91)" stroke-width="0"></path><path d="M201.55049533344072,22.950241279544617L166.57065730036425,18.96714155334266Z" opacity="1" fill="#495867" stroke="rgb(51, 62, 72)" stroke-width="0"></path><path d="M1.6431300764452317e-14,-259.52170539462446A2,2,0,0,1,2.0154125113327455,-261.52164600736637A261.52941176470586,261.52941176470586,0,0,1,2.666452415270836,-261.51581835428266A2,2,0,0,1,4.645740713859074,-259.48011997868707L4.087100228322124,-228.2781848858288A2,2,0,0,1,2.0691359436106738,-226.31407079950816A226.3235294117647,226.3235294117647,0,0,0,1.9824809996135795,-226.31484647385395A2,2,0,0,1,1.4210854715202004e-14,-228.31476974353845Z" opacity="1" fill="#a6cee3" stroke="rgb(116, 144, 159)" stroke-width="0"></path><path d="M4.645740713859079,-259.48011997868707A2,2,0,0,1,6.696631543848606,-261.44366189288087A261.52941176470586,261.52941176470586,0,0,1,44.9398771879702,-257.6393616207027A2,2,0,0,1,46.56375202919008,-255.31026725907114L40.964559425864344,-224.60974812792475A2,2,0,0,1,38.65542044982718,-222.9979785451989A226.3235294117647,226.3235294117647,0,0,0,6.033462602554161,-226.24309336291682A2,2,0,0,1,4.087100228322129,-228.27818488582875Z" opacity="1" fill="#1f78b4" stroke="rgb(22, 84, 126)" stroke-width="0"></path><path d="M46.56375202919006,-255.31026725907114A2,2,0,0,1,48.905291226254235,-256.91614528493204A261.52941176470586,261.52941176470586,0,0,1,62.38409661155775,-253.98003407345408A2,2,0,0,1,63.84555860763265,-251.5457417986112L56.16826534984374,-221.29789888436474A2,2,0,0,1,53.75470664182584,-219.84715481272247A226.3235294117647,226.3235294117647,0,0,0,42.556040269489074,-222.2865794463974A2,2,0,0,1,40.96455942586433,-224.60974812792475Z" opacity="1" fill="#b2df8a" stroke="rgb(125, 156, 97)" stroke-width="0"></path><path d="M63.84555860763262,-251.54574179861123A2,2,0,0,1,66.2910409992921,-252.98840111993917A261.52941176470586,261.52941176470586,0,0,1,86.19930549418102,-246.91559883959118A2,2,0,0,1,87.42321898489618,-244.35362971163968L76.9107619820263,-214.97062304972994A2,2,0,0,1,74.37044976788576,-213.755412017381A226.3235294117647,226.3235294117647,0,0,0,57.59781219549156,-218.87172497993157A2,2,0,0,1,56.16826534984371,-221.29789888436477Z" opacity="1" fill="#33a02c" stroke="rgb(36, 112, 31)" stroke-width="0"></path><path d="M87.42321898489631,-244.35362971163963A2,2,0,0,1,89.9945438289598,-245.55776367081225A261.52941176470586,261.52941176470586,0,0,1,114.60744215393692,-235.08034248087412A2,2,0,0,1,115.52192993472643,-232.3923391058544L101.63066242675272,-204.447652316539A2,2,0,0,1,98.96518829418811,-203.53926272661454A226.3235294117647,226.3235294117647,0,0,0,78.10367452728178,-212.41976365379554A2,2,0,0,1,76.91076198202643,-214.97062304972988Z" opacity="1" fill="#fb9a99" stroke="rgb(176, 108, 107)" stroke-width="0"></path><path d="M115.52192993472634,-232.39233910585443A2,2,0,0,1,118.21690076981352,-233.28608529094305A261.52941176470586,261.52941176470586,0,0,1,174.88831549476595,-194.45233431716954A2,2,0,0,1,175.02757716045608,-191.6164471131715L153.98088155052125,-168.57497501102984A2,2,0,0,1,151.16833186838537,-168.43537456700605A226.3235294117647,226.3235294117647,0,0,0,102.51566894498797,-201.77432340652155A2,2,0,0,1,101.63066242675265,-204.44765231653903Z" opacity="1" fill="#e31a1c" stroke="rgb(159, 18, 20)" stroke-width="0"></path><path d="M175.02757716045602,-191.6164471131715A2,2,0,0,1,177.8644533426718,-191.73385057184242A261.52941176470586,261.52941176470586,0,0,1,219.5293740322925,-142.14248891511252A2,2,0,0,1,218.9246018593085,-139.36834027740127L192.59938196190345,-122.60959240996527A2,2,0,0,1,189.8476757374604,-123.207954217583A226.3235294117647,226.3235294117647,0,0,0,154.09584010926778,-165.76131040268984A2,2,0,0,1,153.98088155052116,-168.57497501102984Z" opacity="1" fill="#fdbf6f" stroke="rgb(177, 134, 78)" stroke-width="0"></path><path d="M218.92460185930852,-139.36834027740124A2,2,0,0,1,221.69400759349426,-138.74220776363907A261.52941176470586,261.52941176470586,0,0,1,222.51314467001686,-137.42464723277703A2,2,0,0,1,221.84930100769262,-134.6640383076805L195.1723922294534,-118.47097279282123A2,2,0,0,1,192.43408378760603,-119.12792855675178A226.3235294117647,226.3235294117647,0,0,0,191.97693953932617,-119.86323310553502A2,2,0,0,1,192.59938196190348,-122.60959240996524Z" opacity="1" fill="#ff7f00" stroke="rgb(179, 89, 0)" stroke-width="0"></path><path d="M221.8493010076926,-134.6640383076805A2,2,0,0,1,224.60471221130743,-133.9789403991121A261.52941176470586,261.52941176470586,0,0,1,236.81094417381178,-110.98743143933402A2,2,0,0,1,235.83475007638197,-108.32121780770689L207.47612065564593,-95.2958206886789A2,2,0,0,1,204.83126996929184,-96.26261376134049A226.3235294117647,226.3235294117647,0,0,0,194.49147545640884,-115.73852401075031A2,2,0,0,1,195.17239222945335,-118.47097279282123Z" opacity="1" fill="#cab2d6" stroke="rgb(141, 125, 150)" stroke-width="0"></path><path d="M235.834750076382,-108.32121780770689A2,2,0,0,1,238.49336173715574,-107.32450617311606A261.52941176470586,261.52941176470586,0,0,1,-121.72886030588127,231.47293100193014A2,2,0,0,1,-122.56088239449498,228.7582690912331L-107.82319575510783,201.25057152763736A2,2,0,0,1,-105.13123871217243,200.42395718137627A226.3235294117647,226.3235294117647,0,0,0,206.48619710405492,-92.65954009654537A2,2,0,0,1,207.47612065564596,-95.29582068867887Z" opacity="1" fill="#6a3d9a" stroke="rgb(74, 43, 108)" stroke-width="0"></path><path d="M-122.56088239449494,228.75826909123316A2,2,0,0,1,-125.28187547196316,229.56934659536014A261.52941176470586,261.52941176470586,0,0,1,-139.50461344718406,221.21504479791787A2,2,0,0,1,-140.12120799317674,218.443499883762L-123.27192937678369,192.17613148039547A2,2,0,0,1,-120.52344345971608,191.5631476615754A226.3235294117647,226.3235294117647,0,0,0,-108.62619818994135,198.5514770335328A2,2,0,0,1,-107.82319575510779,201.2505715276374Z" opacity="1" fill="#ffff99" stroke="rgb(179, 179, 107)" stroke-width="0"></path><path d="M-140.67147841731133,219.30135001974097A0.9866696329060384,0.9866696329060384,0,1,1,-142.32841048722108,218.22962798111107L-124.10523817419603,190.28836101344572A0.8603403169604351,0.8603403169604351,0,0,1,-122.66045319788185,191.22286395917098Z" opacity="1" fill="#b15928" stroke="rgb(124, 62, 28)" stroke-width="0"></path><path d="M-141.77165857356744,217.3759701444345A2,2,0,0,1,-144.55230131985306,217.95014430168996A261.52941176470586,261.52941176470586,0,0,1,-261.4801400144713,5.076376267135619A2,2,0,0,1,-259.5039267423175,3.0376925868423967L-228.299128936533,2.6724164842473366A2,2,0,0,1,-226.27613780095837,4.6313526403893945A226.3235294117647,226.3235294117647,0,0,0,-125.29192818597272,188.47883885688327A2,2,0,0,1,-124.72391676898275,191.23696993219917Z" opacity="1" fill="#f92a82" stroke="rgb(174, 29, 91)" stroke-width="0"></path><path d="M-259.9854304982266,3.043328957776059A1.5217166018323418,1.5217166018323418,0,1,1,-260.0032421384269,-1.6278089987054045e-12L-227.65200552406094,2.731148640577885e-14A1.3323750634692275,1.3323750634692275,0,0,1,-227.63641012001935,2.6646588519795733Z" opacity="1" fill="#495867" stroke="rgb(51, 62, 72)" stroke-width="0"></path></g><g transform="translate(790.8333740234375,120)"><g transform="translate(0,0)" style="opacity: 1;"><rect width="100" height="18" fill="transparent" style="cursor: auto;"></rect><rect x="0" y="0" fill="#a6cee3" opacity="1" stroke-width="0" stroke="transparent" width="18" height="18" style="pointer-events: none;"></rect><text text-anchor="start" style="font-family: sans-serif; font-size: 13px; fill: rgb(153, 153, 153); dominant-baseline: central; pointer-events: none; user-select: none;" x="26" y="9">Human Computer Interaction </text></g><g transform="translate(0,24)" style="opacity: 1;"><rect width="100" height="18" fill="transparent" style="cursor: auto;"></rect><rect x="0" y="0" fill="#1f78b4" opacity="1" stroke-width="0" stroke="transparent" width="18" height="18" style="pointer-events: none;"></rect><text text-anchor="start" style="font-family: sans-serif; font-size: 13px; fill: rgb(153, 153, 153); dominant-baseline: central; pointer-events: none; user-select: none;" x="26" y="9">Information Extraction and Information Retrieval </text></g><g transform="translate(0,48)" style="opacity: 1;"><rect width="100" height="18" fill="transparent" style="cursor: auto;"></rect><rect x="0" y="0" fill="#b2df8a" opacity="1" stroke-width="0" stroke="transparent" width="18" height="18" style="pointer-events: none;"></rect><text text-anchor="start" style="font-family: sans-serif; font-size: 13px; fill: rgb(153, 153, 153); dominant-baseline: central; pointer-events: none; user-select: none;" x="26" y="9">Natural Language Generation </text></g><g transform="translate(0,72)" style="opacity: 1;"><rect width="100" height="18" fill="transparent" style="cursor: auto;"></rect><rect x="0" y="0" fill="#33a02c" opacity="1" stroke-width="0" stroke="transparent" width="18" height="18" style="pointer-events: none;"></rect><text text-anchor="start" style="font-family: sans-serif; font-size: 13px; fill: rgb(153, 153, 153); dominant-baseline: central; pointer-events: none; user-select: none;" x="26" y="9">Speech Processing </text></g><g transform="translate(0,96)" style="opacity: 1;"><rect width="100" height="18" fill="transparent" style="cursor: auto;"></rect><rect x="0" y="0" fill="#fb9a99" opacity="1" stroke-width="0" stroke="transparent" width="18" height="18" style="pointer-events: none;"></rect><text text-anchor="start" style="font-family: sans-serif; font-size: 13px; fill: rgb(153, 153, 153); dominant-baseline: central; pointer-events: none; user-select: none;" x="26" y="9">Support operation </text></g><g transform="translate(0,120)" style="opacity: 1;"><rect width="100" height="18" fill="transparent" style="cursor: auto;"></rect><rect x="0" y="0" fill="#e31a1c" opacity="1" stroke-width="0" stroke="transparent" width="18" height="18" style="pointer-events: none;"></rect><text text-anchor="start" style="font-family: sans-serif; font-size: 13px; fill: rgb(153, 153, 153); dominant-baseline: central; pointer-events: none; user-select: none;" x="26" y="9">Text Processing </text></g><g transform="translate(0,144)" style="opacity: 1;"><rect width="100" height="18" fill="transparent" style="cursor: auto;"></rect><rect x="0" y="0" fill="#fdbf6f" opacity="1" stroke-width="0" stroke="transparent" width="18" height="18" style="pointer-events: none;"></rect><text text-anchor="start" style="font-family: sans-serif; font-size: 13px; fill: rgb(153, 153, 153); dominant-baseline: central; pointer-events: none; user-select: none;" x="26" y="9">Translation Technologies </text></g><g transform="translate(0,168)" style="opacity: 1;"><rect width="100" height="18" fill="transparent" style="cursor: auto;"></rect><rect x="0" y="0" fill="#ff7f00" opacity="1" stroke-width="0" stroke="transparent" width="18" height="18" style="pointer-events: none;"></rect><text text-anchor="start" style="font-family: sans-serif; font-size: 13px; fill: rgb(153, 153, 153); dominant-baseline: central; pointer-events: none; user-select: none;" x="26" y="9">Image / Video Processing </text></g><g transform="translate(0,192)" style="opacity: 1;"><rect width="100" height="18" fill="transparent" style="cursor: auto;"></rect><rect x="0" y="0" fill="#cab2d6" opacity="1" stroke-width="0" stroke="transparent" width="18" height="18" style="pointer-events: none;"></rect><text text-anchor="start" style="font-family: sans-serif; font-size: 13px; fill: rgb(153, 153, 153); dominant-baseline: central; pointer-events: none; user-select: none;" x="26" y="9">Other functions of software</text></g><g transform="translate(0,216)" style="opacity: 1;"><rect width="100" height="18" fill="transparent" style="cursor: auto;"></rect><rect x="0" y="0" fill="#6a3d9a" opacity="1" stroke-width="0" stroke="transparent" width="18" height="18" style="pointer-events: none;"></rect><text text-anchor="start" style="font-family: sans-serif; font-size: 13px; fill: rgb(153, 153, 153); dominant-baseline: central; pointer-events: none; user-select: none;" x="26" y="9">Corpus</text></g><g transform="translate(0,240)" style="opacity: 1;"><rect width="100" height="18" fill="transparent" style="cursor: auto;"></rect><rect x="0" y="0" fill="#ffff99" opacity="1" stroke-width="0" stroke="transparent" width="18" height="18" style="pointer-events: none;"></rect><text text-anchor="start" style="font-family: sans-serif; font-size: 13px; fill: rgb(153, 153, 153); dominant-baseline: central; pointer-events: none; user-select: none;" x="26" y="9">Model</text></g><g transform="translate(0,264)" style="opacity: 1;"><rect width="100" height="18" fill="transparent" style="cursor: auto;"></rect><rect x="0" y="0" fill="#b15928" opacity="1" stroke-width="0" stroke="transparent" width="18" height="18" style="pointer-events: none;"></rect><text text-anchor="start" style="font-family: sans-serif; font-size: 13px; fill: rgb(153, 153, 153); dominant-baseline: central; pointer-events: none; user-select: none;" x="26" y="9">Grammar</text></g><g transform="translate(0,288)" style="opacity: 1;"><rect width="100" height="18" fill="transparent" style="cursor: auto;"></rect><rect x="0" y="0" fill="#f92a82" opacity="1" stroke-width="0" stroke="transparent" width="18" height="18" style="pointer-events: none;"></rect><text text-anchor="start" style="font-family: sans-serif; font-size: 13px; fill: rgb(153, 153, 153); dominant-baseline: central; pointer-events: none; user-select: none;" x="26" y="9">Lexical/Conceptual resource</text></g><g transform="translate(0,312)" style="opacity: 1;"><rect width="100" height="18" fill="transparent" style="cursor: auto;"></rect><rect x="0" y="0" fill="#495867" opacity="1" stroke-width="0" stroke="transparent" width="18" height="18" style="pointer-events: none;"></rect><text text-anchor="start" style="font-family: sans-serif; font-size: 13px; fill: rgb(153, 153, 153); dominant-baseline: central; pointer-events: none; user-select: none;" x="26" y="9">Uncategorized Language Description</text></g></g></g></svg>